<svg xmlns="http://www.w3.org/2000/svg" xmlns:xlink="http://www.w3.org/1999/xlink" id="Gruppe_60" data-name="Gruppe 60" width="100%" height="100%" viewBox="0 0 41.645 49.967" preserveAspectRatio="xMidYMid meet" aria-hidden="true" role="img">
  <defs>
    <clipPath id="clip-path">
      <rect id="Rechteck_56" data-name="Rechteck 56" width="41.645" height="49.967" fill="none"></rect>
    </clipPath>
  </defs>
  <g id="Gruppe_69" data-name="Gruppe 69" transform="translate(0 0)" clip-path="url(#clip-path)">
    <path id="Pfad_200" data-name="Pfad 200" d="M11.543,24.839a.858.858,0,0,0-.343-.621.956.956,0,0,0-.687-.18,1.021,1.021,0,0,1-.818-.164,2.736,2.736,0,0,1-.785-1.324,21.8,21.8,0,0,1-.7-2.289,3.043,3.043,0,0,1-.1-1.553.956.956,0,0,1,.229-.392l.9,1.521a3.391,3.391,0,0,0,2.878,1.635h16.89a3.412,3.412,0,0,0,2.878-1.635l.9-1.521a1.18,1.18,0,0,1,.229.392,3.235,3.235,0,0,1-.1,1.553,21.8,21.8,0,0,1-.7,2.289,2.892,2.892,0,0,1-.8,1.341,1.1,1.1,0,0,1-.8.147.905.905,0,0,0-1.046.8,13.287,13.287,0,0,1-1.1,4.333c-.948,2.387-3.908,5.706-7.014,5.706H19.67c-3.107,0-6.066-3.319-7.031-5.706A14.165,14.165,0,0,1,11.543,24.839ZM14.307,4.81v10.4H8.944V13.018A8.992,8.992,0,0,1,14.307,4.81Zm2.24-1.488c.441-.131.9-.229,1.324-.327V4.483a1.79,1.79,0,0,0,1.8,1.782h1.782a1.786,1.786,0,0,0,1.782-1.782V3c.441.1.883.2,1.341.327a.653.653,0,0,1,.458.621V15.209H16.089V3.943a.633.633,0,0,1,.458-.621M19.67,1.916a3.652,3.652,0,0,1,1.782,0V4.483H19.67Zm12.508,11.1v2.191H26.815V4.81A9,9,0,0,1,32.178,13.018Zm-.687,3.973L30.346,18.92a1.614,1.614,0,0,1-1.341.752H12.116a1.593,1.593,0,0,1-1.341-.752L9.614,16.991Zm7.848,29.022v2.763a1.74,1.74,0,0,1-1.455,1.717c-.981.164-2.305.36-3.924.556V47.386a.879.879,0,0,0-.883-.883.893.893,0,0,0-.9.883v3.875c-2.371.245-5.216.458-8.4.556l-.507-5.15.294-.6a1.069,1.069,0,0,0,.376.213,1.229,1.229,0,0,0,1.014-.1,17.215,17.215,0,0,0,6.458-6.638L35.3,40.65A5.607,5.607,0,0,1,39.339,46.013ZM19.13,51.85l.441-4.464h1.962l.458,4.464c-.474,0-.948.016-1.439.016-.474,0-.948-.016-1.422-.016M1.782,48.776V46.013A5.607,5.607,0,0,1,5.821,40.65L9.7,39.538a17.223,17.223,0,0,0,6.475,6.638,1.178,1.178,0,0,0,.621.164,1.1,1.1,0,0,0,.392-.065,1.235,1.235,0,0,0,.376-.213l.294.6-.523,5.15c-3.188-.1-6.017-.311-8.388-.556V47.386a.9.9,0,0,0-1.8,0v3.662c-1.6-.2-2.927-.392-3.924-.556a1.738,1.738,0,0,1-1.439-1.717m20.569-6.818,5.494-3.434,1.8.523a15.423,15.423,0,0,1-5.1,5.281A6.759,6.759,0,0,0,22.351,41.958ZM19.326,45.6,18.7,44.378a6.073,6.073,0,0,1,1.848-1.39,5.473,5.473,0,0,1,1.848,1.39L21.8,45.6Zm-2.763-1.275a15.423,15.423,0,0,1-5.1-5.281l1.8-.523,5.51,3.434A6.642,6.642,0,0,0,16.563,44.329Zm3.107-7.668h1.782A7.775,7.775,0,0,0,26,35.009l.654,2.158-6.1,3.81-6.1-3.81.67-2.158A7.775,7.775,0,0,0,19.67,36.661ZM5.33,38.933A7.392,7.392,0,0,0,0,46.013v2.763a3.5,3.5,0,0,0,2.927,3.483c1.226.2,2.959.458,5.118.7a115.8,115.8,0,0,0,12.508.687,116.392,116.392,0,0,0,12.524-.687c2.142-.245,3.891-.507,5.1-.7a3.516,3.516,0,0,0,2.943-3.483V46.013a7.387,7.387,0,0,0-5.347-7.08l-7.358-2.109-.932-3.09a12.764,12.764,0,0,0,2.649-3.891,15.568,15.568,0,0,0,1.112-4.022,2.741,2.741,0,0,0,1.194-.474,4.3,4.3,0,0,0,1.439-2.175,21.121,21.121,0,0,0,.768-2.5,4.7,4.7,0,0,0,.065-2.518,2.963,2.963,0,0,0-1.014-1.39,2.174,2.174,0,0,0,.262-1.014V13.018A10.812,10.812,0,0,0,26.52,2.783a2.438,2.438,0,0,0-1.455-1.177c-.654-.18-1.275-.327-1.9-.441a1.421,1.421,0,0,0-.932-.9A6.5,6.5,0,0,0,20.552,0a6.369,6.369,0,0,0-1.668.262,1.356,1.356,0,0,0-.932.9q-.932.172-1.913.441a2.438,2.438,0,0,0-1.455,1.177A10.812,10.812,0,0,0,7.145,13.018v2.731a2.174,2.174,0,0,0,.262,1.014,2.931,2.931,0,0,0-1,1.39,4.7,4.7,0,0,0,.049,2.518,24.682,24.682,0,0,0,.768,2.5A4.291,4.291,0,0,0,8.666,25.33a2.578,2.578,0,0,0,1.194.491,15.59,15.59,0,0,0,1.128,4.022,12.381,12.381,0,0,0,2.649,3.891l-.948,3.09Z" transform="translate(0 0.046)" fill="currentColor"></path>
  </g>
</svg>