<svg xmlns="http://www.w3.org/2000/svg" xmlns:xlink="http://www.w3.org/1999/xlink" width="100%" height="100%" viewBox="0 0 50 50" preserveAspectRatio="xMidYMid meet" aria-hidden="true" role="img">
  <defs>
    <clipPath id="clip-path">
      <rect id="Rechteck_57" data-name="Rechteck 57" width="50" height="50" fill="none"></rect>
    </clipPath>
  </defs>
  <g id="Gruppe_61" data-name="Gruppe 61" transform="translate(0 0)">
    <g id="Gruppe_72" data-name="Gruppe 72" transform="translate(0 0)">
      <g id="Gruppe_71" data-name="Gruppe 71" transform="translate(0 0)" clip-path="url(#clip-path)">
        <path id="Pfad_201" data-name="Pfad 201" d="M31.463,40.969a.81.81,0,0,0-.818.818.81.81,0,1,0,1.62,0,.807.807,0,0,0-.8-.818m2.421-.818a.81.81,0,0,0-.818.818.81.81,0,1,0,1.62,0,.807.807,0,0,0-.8-.818m2.405-.818a.807.807,0,0,0-.8.818.81.81,0,1,0,.8-.818m3.24-4.925a5.017,5.017,0,0,1,1.1.131l.1.016L48.4,36.274v9.784l-6.234-1.783a.7.7,0,0,0-.409,0L25.72,48.234l.1.016a.708.708,0,0,0-.262.016,2.24,2.24,0,0,1-.556.065,2.418,2.418,0,0,1-1.014-.229l-.229-.065h.082l-12.516-6.07-.278.72a.862.862,0,0,0-.425-1.063,1.6,1.6,0,0,1-.933-1.473,1.617,1.617,0,0,1,1.6-1.652,1.5,1.5,0,0,1,.7.18.807.807,0,0,0,1.08-.36l-.327.671,10.34,4.368a.634.634,0,0,0,.425.049l1.047-.164a3.574,3.574,0,0,0,2.471,1A5.405,5.405,0,0,0,28.485,44c.425-.131.818-.278.818-.278a.779.779,0,0,0,.573-.589.815.815,0,0,0-.229-.8.768.768,0,0,0-.8-.18c-.229.065-.458.164-.818.262a3.569,3.569,0,0,1-1,.2,2.026,2.026,0,0,1-1.505-.671l-.049-.1a2.136,2.136,0,0,1-.344-.589l-.016-.049-.065-.262A1.586,1.586,0,0,1,25,40.56a2.04,2.04,0,0,1,1.571-2,.775.775,0,0,0,.589-.589l-.1.425,10.52-3.583.065-.016a4.507,4.507,0,0,1,1.882-.393m0-1.636a6.415,6.415,0,0,0-2.52.507l-10.88,3.714-.2.082A3.669,3.669,0,0,0,23.4,40.4v.164a2.818,2.818,0,0,0,.065.638,2.213,2.213,0,0,0,.147.54l-.115.016L12.664,37.19a.709.709,0,0,0-.311-.065,2.906,2.906,0,0,0-1.063-.262,3.276,3.276,0,0,0-3.223,3.289A3.224,3.224,0,0,0,9.6,42.818a.757.757,0,0,0,.344.295l13.334,6.463.147.065A4.155,4.155,0,0,0,25,49.985a3.324,3.324,0,0,0,.72-.1l.245-.016,15.969-3.959,7.052,2.012a.824.824,0,0,0,.7-.131A.863.863,0,0,0,50,47.138V35.619a.811.811,0,0,0-.622-.8l-8.393-1.882-.18-.016a6.485,6.485,0,0,0-1.276-.147M29.385,17.72a2.983,2.983,0,0,0,1.26.311,2.887,2.887,0,0,0,1.08-.213l.54.54v3.419l-1.145,1.162H29.041v8.671l-.344.344h-.933l-.344-.344V22.939H25.344L24.2,21.778V20.24l.9.164.18.016a2.71,2.71,0,0,0,.54.065,3.149,3.149,0,0,0,1.407-.36,1.661,1.661,0,0,0,1.014.36,1.632,1.632,0,0,0,1.145-2.765m-12.5-8.688,5.726,1.587,2.16,2.405a17.88,17.88,0,0,0-7.019-1.554H15.33v-.818a1.5,1.5,0,0,1,.72-1.178,3.391,3.391,0,0,1,.638-.376l.2-.065m-.753-7.4a2.267,2.267,0,0,1,1.162.327.987.987,0,0,0,.311.1l-.131-.016,8.557,4.516,5.694,6.954.049.065a1.58,1.58,0,0,1,.491,1.162,1.609,1.609,0,0,1-2.88,1.014l-.1-.115L23.658,9.327a.806.806,0,0,0-.393-.229L17.147,7.4l-.213-.016a1.82,1.82,0,0,0-.851.213,4.02,4.02,0,0,0-.982.556,3.155,3.155,0,0,0-1.391,2.5v1.636a.807.807,0,0,0,.8.818h3.24A18.491,18.491,0,0,1,26.6,15.79l.049.016a1.658,1.658,0,0,1,.769,1.407,1.613,1.613,0,0,1-1.6,1.636,1.7,1.7,0,0,1-.376-.049h-.016l-.049-.016H25.36a34.183,34.183,0,0,0-6-.753,26.3,26.3,0,0,0-3.174.409,30.939,30.939,0,0,1-4.892.409,22.779,22.779,0,0,1-6.266-1.587c-1.882-.72-3.06-1.26-3.4-1.423V6.366L15.134,1.833H15a.835.835,0,0,0,.344-.049,2.223,2.223,0,0,1,.785-.147m0-1.636a3.823,3.823,0,0,0-1.063.2.545.545,0,0,0-.278.033L.556,4.991A.832.832,0,0,0,0,5.777v10.6a.812.812,0,0,0,.474.753s1.783.834,4.009,1.669a22.27,22.27,0,0,0,6.806,1.685,33.022,33.022,0,0,0,5.121-.425c1.391-.2,2.454-.393,2.945-.393a22.793,22.793,0,0,1,3.223.311v2.487l2.094,2.111h1.145V32.3l1.276,1.293h2.274L30.645,32.3V24.576H31.79l2.094-2.111V17.687l-.8-.818a3.232,3.232,0,0,0-.18-4.45l.065.049L27.176,5.384a1,1,0,0,0-.262-.2L18.079.508,17.965.459A4,4,0,0,0,16.132,0" transform="translate(0 0.009)"></path>
      </g>
    </g>
  </g>
</svg>