<svg xmlns="http://www.w3.org/2000/svg" xmlns:xlink="http://www.w3.org/1999/xlink" width="100%" height="100%" aria-hidden="true" preserveAspectRatio="xMidYMid meet" role="img" viewBox="0 0 55.285 46.077"><defs><clipPath id="clip-path"><rect id="Rechteck_51" width="55.285" height="46.077" fill="none" data-name="Rechteck 51"/></clipPath></defs><g id="Gruppe_58" clip-path="url(#clip-path)" data-name="Gruppe 58"><path id="Pfad_177" fill="currentColor" d="M33.454,18.8V1.936H1.9V41.9h31.55V36.851a12.149,12.149,0,0,0,1.556-.724v7.254H.348V.453H35.01V19.521a10.107,10.107,0,0,0-1.556-.724" data-name="Pfad 177" transform="translate(5.948 -0.453)"/><path id="Pfad_178" fill="currentColor" d="M10.028,17.868A8.6,8.6,0,0,1,4,15.462,7.939,7.939,0,0,1,4,3.9a8.665,8.665,0,0,1,6.024-2.388A8.665,8.665,0,0,1,16.052,3.9a7.939,7.939,0,0,1,0,11.56,8.6,8.6,0,0,1-6.024,2.406M10.028,3A7.011,7.011,0,0,0,5.107,4.951a6.486,6.486,0,0,0,0,9.461,7.011,7.011,0,0,0,4.921,1.954,7.011,7.011,0,0,0,4.921-1.954,6.5,6.5,0,0,0,0-9.461A7.011,7.011,0,0,0,10.028,3" data-name="Pfad 178" transform="translate(25.756 17.68)"/><path id="Pfad_179" fill="currentColor" d="M4.9,7.832l-3.13-3,1.1-1.049L4.9,5.734,8.97,1.808l1.1,1.067Z" data-name="Pfad 179" transform="translate(30.254 22.703)"/><path id="Pfad_180" fill="currentColor" d="M14.059,1.807a5.632,5.632,0,0,0-.2.742H.708V1.807Z" data-name="Pfad 180" transform="translate(12.1 22.688)"/><path id="Pfad_181" fill="currentColor" d="M14.023,2.82H.708V2.078H13.824c.054.253.145.488.2.742" data-name="Pfad 181" transform="translate(12.1 27.319)"/><rect id="Rechteck_50" width="10.818" height=".742" fill="currentColor" data-name="Rechteck 50" transform="translate(12.808 34.282)"/><path id="Pfad_182" fill="currentColor" d="M2.8,37.208H.16V.628H2.8V1.37H.938v35.1H2.8Z" data-name="Pfad 182" transform="translate(2.729 2.545)"/><path id="Pfad_183" fill="currentColor" d="M2.117,31.28H0V.8H2.117v.742H.778v29H2.117Z" data-name="Pfad 183" transform="translate(0.003 5.423)"/><path id="Pfad_184" fill="currentColor" d="M5.036,5.954,2.25,3.277l1.1-1.049L6.14,4.9Z" data-name="Pfad 184" transform="translate(38.461 29.871)"/></g></svg>