<svg xmlns="http://www.w3.org/2000/svg" xmlns:xlink="http://www.w3.org/1999/xlink" id="Gruppe_58" data-name="Gruppe 58" width="100%" height="100%" viewBox="0 0 52.023 43.358" preserveAspectRatio="xMidYMid meet" aria-hidden="true" role="img">
  <defs>
    <clipPath id="clip-path">
      <rect id="Rechteck_54" data-name="Rechteck 54" width="52.023" height="43.358" fill="none"></rect>
    </clipPath>
  </defs>
  <g id="Gruppe_65" data-name="Gruppe 65" transform="translate(0 0)" clip-path="url(#clip-path)">
    <path id="Pfad_193" data-name="Pfad 193" d="M43.945,43.649l-35.953.119L7.855,15.646,25.968,2.81,44.2,15.714a1.16,1.16,0,0,0-.119.477Zm2.213,1.107L46.294,17.2l3.881,2.775a.979.979,0,0,0,1.549-.272.988.988,0,0,0-.255-1.549L26.615.546a1.025,1.025,0,0,0-1.294,0L.484,18.148a1,1,0,0,0-.409,1.243,1,1,0,0,0,1.055.766,1.07,1.07,0,0,0,.63-.2L5.642,17.2l.136,27.7A.976.976,0,0,0,6.885,46l38.149-.119a.968.968,0,0,0,1.124-1.124" transform="translate(0.077 -0.189)" fill="currentColor"></path>
    <path id="Pfad_194" data-name="Pfad 194" d="M7.475,3.359c2.741,0,4.1,1.345,4.1,4.086,0,2.758-1.362,4.12-4.1,4.12-2.724,0-4.1-1.362-4.1-4.12,0-2.707,1.379-4.086,4.1-4.086m0,10.418a6.157,6.157,0,0,0,4.477-1.839A6.14,6.14,0,0,0,13.79,7.445,6.053,6.053,0,0,0,11.952,3,6.079,6.079,0,0,0,7.475,1.146,6.042,6.042,0,0,0,3.015,3,6,6,0,0,0,1.159,7.445a6.09,6.09,0,0,0,1.856,4.477,6.042,6.042,0,0,0,4.46,1.856" transform="translate(18.571 13.102)" fill="currentColor"></path>
    <path id="Pfad_195" data-name="Pfad 195" d="M17.306,1.909a.981.981,0,0,0-1.464.63.965.965,0,0,0,.664,1.43,5.414,5.414,0,0,1,3.745,5.447v3.949H3.109V9.383a5.381,5.381,0,0,1,3.32-5.243.987.987,0,0,0,.545-1.481.978.978,0,0,0-1.481-.528A7.455,7.455,0,0,0,.9,9.383v5.09A.969.969,0,0,0,2,15.579H21.358a.969.969,0,0,0,1.107-1.107V9.4a7.454,7.454,0,0,0-5.158-7.49" transform="translate(14.357 23.302)" fill="currentColor"></path>
  </g>
</svg>