<svg xmlns="http://www.w3.org/2000/svg" xmlns:xlink="http://www.w3.org/1999/xlink" id="Gruppe_59" data-name="Gruppe 59" width="100%" height="100%" viewBox="0 0 51.179 51.179" preserveAspectRatio="xMidYMid meet" aria-hidden="true" role="img">
  <defs>
    <clipPath id="clip-path">
      <rect id="Rechteck_55" data-name="Rechteck 55" width="51.179" height="51.179" fill="none"></rect>
    </clipPath>
  </defs>
  <g id="Gruppe_67" data-name="Gruppe 67" transform="translate(0 0)" clip-path="url(#clip-path)">
    <path id="Pfad_196" data-name="Pfad 196" d="M21.892,25.315H1.555V20.292a3.871,3.871,0,0,1,3.861-3.861H17.945a3.871,3.871,0,0,1,3.861,3.861v5.023ZM6.664,8.466a5.174,5.174,0,1,1,5.181,5.181A5.179,5.179,0,0,1,6.664,8.466m11.281,6.415H13.926a6.724,6.724,0,1,0-4.176,0H5.416A5.424,5.424,0,0,0,.005,20.292v5.8a.738.738,0,0,0,.775.775H22.667a.727.727,0,0,0,.761-.775v-5.8a5.439,5.439,0,0,0-5.482-5.411" transform="translate(0.067 24.315)" fill="currentColor"></path>
    <path id="Pfad_197" data-name="Pfad 197" d="M23.655,25.315H3.318V20.292a3.883,3.883,0,0,1,3.875-3.861h12.6a3.871,3.871,0,0,1,3.861,3.861ZM8.413,8.466a5.188,5.188,0,1,1,5.2,5.181,5.2,5.2,0,0,1-5.2-5.181m11.381,6.415H15.775a6.666,6.666,0,0,0,4.636-6.344,6.731,6.731,0,0,0-13.462,0,6.66,6.66,0,0,0,4.65,6.344H7.351A5.424,5.424,0,0,0,1.94,20.292v5.8a.727.727,0,0,0,.761.775H24.43a.738.738,0,0,0,.775-.775v-5.8a5.433,5.433,0,0,0-5.411-5.411" transform="translate(25.903 24.315)" fill="currentColor"></path>
    <path id="Pfad_198" data-name="Pfad 198" d="M22.635,10.7A14.283,14.283,0,0,0,20.4,2.344l1.78.388a.779.779,0,0,0,.919-.531.783.783,0,0,0-.531-.933L18.688.334a.648.648,0,0,0-.531.086,1.437,1.437,0,0,0-.474.531l-.531,3.631a.742.742,0,1,0,1.464.244l.3-1.866a12.161,12.161,0,0,1,2.167,7.664,12.209,12.209,0,0,1-4.09,8.568,12.287,12.287,0,0,1-8.97,3.172,11.626,11.626,0,0,1-5.569-1.622.778.778,0,0,0-1.076.316.773.773,0,0,0,.3,1.076,14.472,14.472,0,0,0,6.272,1.851A14.119,14.119,0,0,0,18,20.441,14.214,14.214,0,0,0,22.635,10.7" transform="translate(16.948 4.073)" fill="currentColor"></path>
    <path id="Pfad_199" data-name="Pfad 199" d="M1.293,22.6l3.789.933a.764.764,0,0,0,.933-.617l.531-3.789a.742.742,0,1,0-1.464-.244l-.23,2.024a12.406,12.406,0,0,1-2.1-7.578,12.229,12.229,0,0,1,4.1-8.582,12.325,12.325,0,0,1,8.97-3.172,11.978,11.978,0,0,1,5.64,1.694.762.762,0,0,0,1.076-.3.793.793,0,0,0-.3-1.091A15.564,15.564,0,0,0,15.832.023,14.031,14.031,0,0,0,5.771,3.583a13.582,13.582,0,0,0-4.55,9.659A13.692,13.692,0,0,0,3.46,21.523l-1.708-.388a.767.767,0,0,0-.919.531.691.691,0,0,0,.459.933" transform="translate(10.461 0.136)" fill="currentColor"></path>
  </g>
</svg>